<?xml version="1.0" encoding="UTF-8"?>
<!DOCTYPE svg PUBLIC "-//W3C//DTD SVG 1.1//EN" "http://www.w3.org/Graphics/SVG/1.1/DTD/svg11.dtd">
<!-- Creator: CorelDRAW -->
<svg xmlns="http://www.w3.org/2000/svg" xml:space="preserve" width="143px" height="45px" style="shape-rendering:geometricPrecision; text-rendering:geometricPrecision; image-rendering:optimizeQuality; fill-rule:evenodd; clip-rule:evenodd"
viewBox="0 0 143 44.9998"
 xmlns:xlink="http://www.w3.org/1999/xlink">
    <style type="text/css" >
      <![CDATA[

        .fil1 {
            fill:#2992D6;
        }
        .fil0 {
            fill:white;
            fill-rule:nonzero;
        }
        .fil2 {
            fill:#2992D6;
            fill-rule:nonzero;
        }

      ]]>
    </style>
 <g id="Warstwa_x0020_1">
  <metadata id="CorelCorpID_0Corel-Layer"/>
  <path class="fil0" d="M85.688 27.0372c0,-2.48315 -0.510236,-4.41751 -1.52391,-5.80385 -1.02085,-1.37839 -2.38224,-2.07156 -4.09739,-2.07156 -1.11307,0 -2.08441,0.312189 -2.928,0.929008 -0.843591,0.617197 -1.49594,1.52353 -1.94948,2.72693 -0.460347,1.21058 -0.687874,2.61203 -0.687874,4.21947 0,1.59156 0.227528,2.97789 0.67389,4.17373 0.453544,1.18791 1.09191,2.1018 1.92794,2.73411 0.843591,0.632315 1.82929,0.944504 2.96353,0.944504 1.71515,0 3.07654,-0.693166 4.09739,-2.08706 1.01367,-1.38595 1.52391,-3.31314 1.52391,-5.76529zm5.69273 0c0,1.81266 -0.262299,3.48813 -0.787276,5.01884 -0.531402,1.53109 -1.28995,2.84863 -2.28926,3.95301 -0.992504,1.09644 -2.18343,1.9423 -3.56636,2.52851 -1.38898,0.586583 -2.94161,0.883654 -4.67112,0.883654 -1.72271,0 -3.26098,-0.297071 -4.63635,-0.891213 -1.36819,-0.593764 -2.55194,-1.44718 -3.5588,-2.55912 -1.00649,-1.10438 -1.76504,-2.41399 -2.28246,-3.9224 -0.517418,-1.51559 -0.779717,-3.1835 -0.779717,-5.01128 0,-1.84328 0.262299,-3.53424 0.78652,-5.06533 0.532158,-1.53071 1.28315,-2.84032 2.26885,-3.92958 0.978142,-1.0817 2.16907,-1.91962 3.56561,-2.50621 1.40334,-0.586205 2.94199,-0.883276 4.63635,-0.883276 1.71515,0 3.26778,0.297071 4.67112,0.890835 1.39691,0.594142 2.59502,1.44756 3.58753,2.544 0.999308,1.10438 1.75786,2.41436 2.27528,3.93033 0.517796,1.51559 0.780095,3.19106 0.780095,5.01921z"/>
  <path class="fil0" d="M65.1277 28.5619c0,1.03559 -0.233575,2.16302 -0.715843,3.37399 -0.475087,1.21852 -1.22646,2.40643 -2.25449,3.57203 -1.02047,1.16523 -2.33197,2.11729 -3.92013,2.84069 -1.59534,0.731339 -3.45222,1.09682 -5.57178,1.09682 -1.60214,0 -3.06255,-0.159874 -4.38085,-0.487559 -1.31187,-0.327307 -2.50961,-0.837544 -3.58035,-1.53071 -1.07036,-0.692788 -2.06287,-1.5995 -2.96315,-2.73411 -0.800882,-1.02047 -1.48876,-2.17096 -2.05569,-3.44277 -0.567307,-1.27181 -0.992504,-2.63547 -1.27597,-4.07471 -0.283465,-1.43962 -0.425197,-2.97789 -0.425197,-4.59288 0,-2.63509 0.354142,-4.99616 1.07036,-7.07528 0.715843,-2.08706 1.73669,-3.86155 3.06255,-5.34652 1.33228,-1.4778 2.88491,-2.60523 4.6715,-3.3823 1.78621,-0.769134 3.69336,-1.15729 5.71389,-1.15729 2.4669,0 4.65714,0.525355 6.58583,1.58438 1.92038,1.05827 3.39515,2.36107 4.42318,3.91446 1.02085,1.55376 1.53827,3.024 1.53827,4.40995 0,0.753638 -0.255118,1.42413 -0.75137,2.00315 -0.496252,0.578646 -1.09871,0.868158 -1.80775,0.868158 -0.786898,0 -1.38255,-0.198047 -1.77222,-0.601701 -0.397229,-0.396095 -0.83641,-1.08888 -1.31868,-2.07156 -0.808063,-1.62255 -1.75068,-2.83351 -2.8354,-3.64082 -1.09191,-0.79937 -2.43175,-1.20302 -4.01953,-1.20302 -2.53795,0 -4.55131,1.03559 -6.05405,3.09959 -1.50274,2.07156 -2.25411,5.01166 -2.25411,8.81991 0,2.54362 0.332977,4.66129 0.999308,6.34432 0.65915,1.69096 1.60214,2.95521 2.8218,3.7852 1.21928,0.830363 2.64416,1.24951 4.28145,1.24951 1.77222,0 3.26816,-0.472441 4.49462,-1.41695 1.22646,-0.944126 2.14791,-2.33046 2.77153,-4.16618 0.262299,-0.860599 0.588473,-1.56132 0.97852,-2.10217 0.382488,-0.54841 1.00649,-0.814867 1.86406,-0.814867 0.737386,0 1.36857,0.274016 1.89279,0.822804 0.524599,0.54841 0.786898,1.23364 0.786898,2.05644z"/>
  <path class="fil0" d="M131.577 25.1943l5.93651 -0.0215433c-0.134929,-2.0795 -0.659528,-3.64082 -1.56699,-4.66923 -0.907087,-1.03559 -2.09802,-1.55339 -3.57959,-1.55339 -1.41808,0 -2.57348,0.525355 -3.48095,1.56888 -0.473197,0.547654 -0.850772,1.23326 -1.13008,2.05342l-0.00226772 0.000755906 -0.0124724 0.0419528c-0.980032,2.93556 -1.09039,6.81033 0.27326,9.67862 0.503055,1.05902 1.17619,1.85084 2.0126,2.38413 0.837166,0.540473 1.76542,0.806929 2.77191,0.806929 0.680693,0 1.29751,-0.0835276 1.85764,-0.258898 0.559748,-0.167055 1.10589,-0.43389 1.63087,-0.799748 0.531024,-0.365103 1.01329,-0.754016 1.45247,-1.17279 0.447118,-0.418772 1.02123,-0.9823 1.72989,-1.69852 0.290646,-0.266079 0.702237,-0.403654 1.24082,-0.403654 0.581292,0 1.056,0.17537 1.4177,0.518173 0.35452,0.342803 0.538961,0.822426 0.538961,1.4468 0,0.548788 -0.205984,1.19584 -0.602835,1.93474 -0.403654,0.731339 -1.00649,1.43962 -1.82173,2.11729 -0.808441,0.67767 -1.82211,1.24158 -3.04857,1.6834 -1.22646,0.449386 -2.63698,0.670111 -4.22476,0.670111 -3.64384,0 -6.47925,-1.11194 -8.49978,-3.34375 -2.02054,-2.23143 -3.03421,-5.26262 -3.03421,-9.08599 0,-1.79754 0.248315,-3.47301 0.751748,-5.01203 0.496252,-1.53827 1.22646,-2.85581 2.17625,-3.96057 0.956977,-1.09644 2.13354,-1.94154 3.53726,-2.52813 1.39654,-0.586583 2.94917,-0.883654 4.65071,-0.883654 2.21858,0 4.11855,0.503055 5.69953,1.50803 1.58778,1.00535 2.77153,2.29984 3.56561,3.89178 0.786898,1.59156 1.18337,3.21449 1.18337,4.8669 0,1.53071 -0.410457,2.52095 -1.22608,2.97827 -0.815244,0.449008 -1.97102,0.67767 -3.45222,0.67767l-6.51893 0.0219213c-1.98917,0.0680315 -2.27641,-3.39628 -0.225638,-3.45789z"/>
  <path class="fil0" d="M100.998 27.1412c0,1.65241 0.241134,3.0618 0.715843,4.21947 0.475087,1.15767 1.13461,2.03339 1.96347,2.61959 0.829607,0.586961 1.73707,0.883654 2.72239,0.883654 0.992126,0 1.90715,-0.281953 2.72958,-0.837544 3.04517,-2.05871 3.35698,-5.04416 3.36151,-11.2872 0.00188976,-4.39786 -0.341669,-8.7927 -0.341669,-13.1996 0,-1.24913 0.233953,-2.19364 0.694677,-2.83314 0.467528,-0.639496 1.12668,-0.959622 1.98463,-0.959622 0.857953,0 1.5171,0.297071 1.98501,0.883654 0.460725,0.586583 0.694677,1.45436 0.694677,2.59729l0 26.8626c0,1.15767 -0.247937,2.03339 -0.744189,2.61241 -0.503433,0.579024 -1.1486,0.868158 -1.9355,0.868158 -0.772914,0 -1.41808,-0.30463 -1.92113,-0.905953 -0.503433,-0.602079 -0.758174,-1.45512 -0.758174,-2.57462l0 -0.602079c-0.758552,0.937323 -1.5103,1.6989 -2.25411,2.2851 -0.738142,0.586961 -1.54621,1.03597 -2.41058,1.3406 -0.865134,0.30463 -1.80775,0.456945 -2.83578,0.456945 -1.35383,0 -2.60863,-0.312189 -3.76441,-0.929386 -1.15502,-0.616819 -2.16227,-1.49254 -3.00586,-2.64265 -0.843591,-1.14255 -1.48158,-2.49071 -1.92076,-4.03654 -0.432756,-1.54621 -0.652347,-3.22167 -0.652347,-5.01921 0,-3.80825 0.865134,-6.77821 2.59465,-8.90344 1.72989,-2.12485 4.01235,-3.19143 6.83377,-3.19143 1.17241,0 1.16674,-0.0661418 2.07307,0.243402 3.32183,1.03295 3.23339,4.53997 -0.493607,4.26558 -1.03899,-0.0763465 -1.9268,0.312567 -2.74167,0.944504 -0.815244,0.631937 -1.44643,1.54621 -1.90035,2.72617 -0.446362,1.18072 -0.673134,2.55156 -0.673134,4.11326z"/>
  <ellipse class="fil1" cx="17.0958" cy="35.7028" rx="3.64884" ry="3.74608"/>
  <path class="fil2" d="M9.75761 29.5416l-3.96057 -17.0139 0 23.0831c0,1.27672 -0.267969,2.23446 -0.797103,2.87282 -0.529134,0.638362 -1.23175,0.957355 -2.1086,0.957355 -0.85493,0 -1.54356,-0.318992 -2.08668,-0.949796 -0.536315,-0.630425 -0.804662,-1.58778 -0.804662,-2.88038l0 -26.4541c0,-1.46343 0.354898,-2.4446 1.05789,-2.95824 0.710174,-0.506079 1.66677,-0.763087 2.8698,-0.763087l1.95628 0c1.17392,0 2.02167,0.116787 2.55799,0.342425 0.529134,0.226016 0.919937,0.63874 1.17354,1.23024 0.253984,0.591496 0.543496,1.55717 0.86967,2.89663l4.51087 18.2736c0.599433,2.55005 -4.18356,4.67225 -5.23843,1.36328z"/>
  <path class="fil2" d="M24.254 29.5348l3.96057 -17.0139 0 23.0831c0,1.27672 0.267969,2.23446 0.797103,2.87282 0.529134,0.638362 1.23175,0.957355 2.1086,0.957355 0.85493,0 1.54318,-0.318992 2.08668,-0.949796 0.536315,-0.630425 0.804284,-1.58778 0.804284,-2.88038l0 -26.4541c0,-1.46343 -0.354898,-2.4446 -1.05751,-2.95824 -0.710174,-0.506079 -1.66715,-0.763087 -2.8698,-0.763087l-1.95628 0c-1.17392,0 -2.02167,0.116787 -2.55799,0.342425 -0.529134,0.226016 -0.920315,0.63874 -1.17354,1.23024 -0.253984,0.591496 -0.543496,1.55717 -0.86967,2.89663l-4.51087 18.2736c-0.599433,2.55005 4.18356,4.67225 5.23843,1.36328z"/>
 </g>
</svg>
